<?xml version="1.0" standalone="no"?><!DOCTYPE svg PUBLIC "-//W3C//DTD SVG 1.1//EN" "http://www.w3.org/Graphics/SVG/1.1/DTD/svg11.dtd"><svg t="1513322538103" class="icon" style="" viewBox="0 0 1024 1024" version="1.1" xmlns="http://www.w3.org/2000/svg" p-id="2861" xmlns:xlink="http://www.w3.org/1999/xlink" width="48" height="48"><defs><style type="text/css"></style></defs><path d="M664.753114 676.926341C659.208523 676.926341 653.769894 676.199426 648.533333 674.824487L648.533333 884.837941C652.219872 886.125537 655.916266 887.466667 659.977373 887.466667 681.933959 887.466667 699.733333 867.129969 699.733333 842.023248L699.733333 665.6C695.613085 668.265353 691.608656 671.125113 686.998019 672.843786 679.797443 675.551401 672.308547 676.926341 664.753114 676.926341ZM879.948491 272.711518C870.118806 242.305913 842.166914 221.866667 810.370751 221.866667L696.666892 221.866667C675.943748 221.866667 657.440652 231.162211 643.932657 245.632596 641.402457 249.066061 638.670932 252.337983 635.822418 255.514074 634.10297 258.178159 632.859636 261.181756 631.466667 264.092261 662.988044 275.12918 688.450548 300.28602 699.227017 333.632247L772.855796 561.434704C776.191305 571.732361 777.39383 582.375006 776.468811 592.878013 775.777766 601.037285 773.810741 608.835139 770.856122 616.162053L770.856122 826.22768C770.856122 850.626089 790.496449 870.4 814.748266 870.4 838.978319 870.4 858.629528 850.626089 858.629528 826.22768L858.629528 488.940406 871.1064 527.551826C877.067329 545.989588 894.071352 557.721962 912.340475 557.721962 916.772403 557.721962 921.299553 557.015555 925.76413 555.55072 942.852492 549.956965 954.12956 534.706248 955.563339 517.774392 956.0721 512.106711 955.446352 506.266534 953.585432 500.555046L879.948491 272.711518ZM712.188609 182.323837C721.72567 185.580766 731.762714 187.733333 742.393315 187.733333 753.026592 187.733333 763.07433 185.580766 772.608717 182.323837 809.537761 169.705243 836.266667 135.090347 836.266667 93.873352 836.266667 42.032565 794.238891 0 742.393315 0 690.558435 0 648.533333 42.032565 648.533333 93.873352 648.533333 135.090347 675.27026 169.705243 712.188609 182.323837ZM641.022633 340.992519C631.181769 310.572839 603.231756 290.133333 571.442801 290.133333L457.73552 290.133333C437.011753 290.133333 418.5081 299.428995 404.999697 313.899564 402.461261 317.333072 399.740535 320.605036 396.891935 323.783905 395.158833 326.445286 393.915462 329.440707 392.533333 332.359463 424.05566 343.388308 449.510767 368.55368 460.298443 401.903068L533.915834 629.69472C537.254163 640.006197 538.464886 650.64624 537.53984 661.138429 536.848775 669.30054 534.884412 677.109444 531.918821 684.422762L531.918821 894.50474C531.918821 918.900721 551.567901 938.666667 575.812285 938.666667 600.053949 938.666667 619.703028 918.900721 619.703028 894.50474L619.703028 557.210455 632.180275 595.822365C638.133222 614.260361 655.14864 625.984669 673.407428 625.984669 677.850373 625.984669 682.377661 625.289204 686.828768 623.824352 703.928528 618.230525 715.195052 602.976876 716.628874 586.047544 717.140371 580.377054 716.511882 574.53954 714.653628 568.827979L641.022633 340.992519ZM459.962191 745.179494C454.408008 745.179494 448.979497 744.452543 443.733333 743.077535L443.733333 953.101657C447.42955 954.389318 451.115911 955.733333 455.179286 955.733333 477.134816 955.733333 494.933333 935.392785 494.933333 910.287606L494.933333 733.866667C490.823141 736.518067 486.818905 739.39206 482.20849 741.096733 474.998402 743.804486 467.519724 745.179494 459.962191 745.179494ZM473.25795 250.587829C482.781643 253.847433 492.82938 256 503.462656 256 514.093259 256 524.140996 253.847433 533.667362 250.587829 570.596407 237.969236 597.333333 203.354339 597.333333 162.137344 597.333333 110.296557 555.305557 68.266667 503.462656 68.266667 451.627776 68.266667 409.6 110.296557 409.6 162.137344 409.6 203.354339 436.326233 237.969236 473.25795 250.587829ZM401.126047 426.32247C391.159345 395.916865 362.849176 375.466667 330.656483 375.466667L215.484187 375.466667C183.28874 375.466667 154.981326 395.916865 145.014625 426.32247L70.442099 654.155046C68.557326 659.866534 67.923558 665.706711 68.438839 671.374392 69.893752 688.317199 81.301587 703.556965 98.62276 709.15072 103.130784 710.615555 107.715962 711.321962 112.21572 711.321962 130.707987 711.321962 147.929961 699.589588 153.970051 681.151826L166.606847 642.540406 166.606847 979.82768C166.606847 1004.226089 186.507183 1024 211.058829 1024 235.610475 1024 255.502544 1004.226089 255.502544 979.82768L255.502544 715.910868 290.62435 715.910868 290.62435 979.838631C290.62435 1004.237042 310.52744 1024 335.079086 1024 359.630732 1024 379.522802 1004.237042 379.522802 979.838631L379.522802 642.540406 392.159597 681.151826C398.196932 699.589588 415.418907 711.321962 433.922195 711.321962 438.421953 711.321962 442.99611 710.615555 447.517911 709.15072 464.825306 703.556965 476.246919 688.317199 477.699075 671.374392 478.20609 665.706711 477.569567 659.866534 475.695816 654.155046L401.126047 426.32247ZM234.321943 335.923837C243.84831 339.180766 253.896047 341.333333 264.526648 341.333333 275.159926 341.333333 285.207663 339.180766 294.731356 335.923837 331.663073 323.305243 358.4 288.690347 358.4 247.484047 358.4 195.632565 316.36153 153.6 264.526648 153.6 212.694442 153.6 170.666667 195.632565 170.666667 247.484047 170.666667 288.690347 197.392899 323.305243 234.321943 335.923837Z" p-id="2862" fill="#2c2c2c"></path></svg>