<?xml version="1.0" standalone="no"?><!DOCTYPE svg PUBLIC "-//W3C//DTD SVG 1.1//EN" "http://www.w3.org/Graphics/SVG/1.1/DTD/svg11.dtd"><svg t="1512716096555" class="icon" style="" viewBox="0 0 1024 1024" version="1.1" xmlns="http://www.w3.org/2000/svg" p-id="5977" xmlns:xlink="http://www.w3.org/1999/xlink" width="32" height="32"><defs><style type="text/css"></style></defs><path d="M519.68 211.968c-114.176 0-206.848 92.672-206.848 206.848s92.672 206.848 206.848 206.848c114.176 0 206.848-92.672 206.848-206.848s-92.672-206.848-206.848-206.848" p-id="5978"></path><path d="M512 0C229.888 0 0 229.888 0 512s229.888 512 512 512 512-229.888 512-512S794.112 0 512 0z m272.384 846.848l-48.128-83.456c-28.16-51.712-81.92-83.968-140.8-83.968H425.472c-60.928 0-116.736 34.816-143.872 89.6l-42.496 77.312c-97.28-79.36-159.232-199.68-159.232-334.848 0-238.08 194.048-432.128 432.128-432.128 238.08 0 432.128 194.048 432.128 432.128 0 135.68-62.464 256-159.744 335.36z" p-id="5979"></path></svg>