<?xml version="1.0" standalone="no"?><!DOCTYPE svg PUBLIC "-//W3C//DTD SVG 1.1//EN" "http://www.w3.org/Graphics/SVG/1.1/DTD/svg11.dtd"><svg t="1512716117246" class="icon" style="" viewBox="0 0 1052 1024" version="1.1" xmlns="http://www.w3.org/2000/svg" p-id="6652" xmlns:xlink="http://www.w3.org/1999/xlink" width="32.875" height="32"><defs><style type="text/css"></style></defs><path d="M1022.733474 964.176842h-58.098527V507.688421a58.933895 58.933895 0 0 0-58.017684-59.823158H726.824421v59.823158h150.689684a29.453474 29.453474 0 0 1 29.103158 29.911579v396.934737a29.399579 29.399579 0 0 1-29.103158 29.642105h-237.864421V59.823158A58.88 58.88 0 0 0 581.632 0H146.054737a58.906947 58.906947 0 0 0-58.044632 59.823158v904.353684H29.911579a29.911579 29.911579 0 0 0 0 59.823158H1022.706526a29.911579 29.911579 0 0 0 0-59.823158z m-441.101474 0H146.054737V89.465263a29.318737 29.318737 0 0 1 29.049263-29.642105h377.478737a29.318737 29.318737 0 0 1 29.049263 29.642105v874.711579zM233.175579 447.865263h87.093895V358.4H233.175579v89.465263z m0-179.2h87.093895V179.2H233.175579v89.465263z m174.241684 179.2h87.093895V358.4h-87.093895v89.465263z m0-179.2h87.093895V179.2h-87.093895v89.465263z" p-id="6653"></path></svg>